# Blender v2.81 (sub 16) OBJ File: 'dungeonCrawlerTestWorld.blend'
# www.blender.org
o Cylinder_Cylinder.001
v -0.000000 -0.884791 -0.100000
v -0.000000 0.161317 -0.100000
v 0.050000 -0.884791 -0.086603
v 0.050000 0.161317 -0.086603
v 0.086602 -0.884791 -0.050000
v 0.086602 0.161317 -0.050000
v 0.100000 -0.884791 -0.000000
v 0.100000 0.161317 -0.000000
v 0.086602 -0.884791 0.050000
v 0.086602 0.161317 0.050000
v 0.050000 -0.884791 0.086603
v 0.050000 0.161317 0.086603
v -0.000000 -0.884791 0.100000
v -0.000000 0.161317 0.100000
v -0.050000 -0.884791 0.086603
v -0.050000 0.161317 0.086603
v -0.086603 -0.884791 0.050000
v -0.086603 0.161317 0.050000
v -0.100000 -0.884791 0.000000
v -0.100000 0.161317 0.000000
v -0.086603 -0.884791 -0.050000
v -0.086603 0.161317 -0.050000
v -0.050000 -0.884791 -0.086603
v -0.050000 0.161317 -0.086603
v 0.000000 0.195691 -0.185059
v 0.092530 0.195691 -0.160266
v 0.160266 0.195691 -0.092529
v 0.185059 0.195691 -0.000000
v 0.160266 0.195691 0.092529
v 0.092530 0.195691 0.160266
v 0.000000 0.195691 0.185059
v -0.092529 0.195691 0.160266
v -0.160265 0.195691 0.092529
v -0.185059 0.195691 0.000000
v -0.160265 0.195691 -0.092529
v -0.092529 0.195691 -0.160266
v 0.000000 0.527784 -0.020216
v 0.010109 0.527784 -0.017508
v 0.017508 0.527784 -0.010108
v 0.020217 0.527784 -0.000000
v 0.017508 0.527784 0.010108
v 0.010109 0.527784 0.017508
v 0.000000 0.527784 0.020216
v -0.010108 0.527784 0.017508
v -0.017507 0.527784 0.010108
v -0.020216 0.527784 0.000000
v -0.017507 0.527784 -0.010108
v -0.010108 0.527784 -0.017508
vt 1.000000 0.500000
vt 1.000000 1.000000
vt 0.916667 1.000000
vt 0.916667 0.500000
vt 0.833333 1.000000
vt 0.833333 0.500000
vt 0.750000 1.000000
vt 0.750000 0.500000
vt 0.666667 1.000000
vt 0.666667 0.500000
vt 0.583333 1.000000
vt 0.583333 0.500000
vt 0.500000 1.000000
vt 0.500000 0.500000
vt 0.416667 1.000000
vt 0.416667 0.500000
vt 0.333333 1.000000
vt 0.333333 0.500000
vt 0.250000 1.000000
vt 0.250000 0.500000
vt 0.166667 1.000000
vt 0.166667 0.500000
vt 0.416667 1.000000
vt 0.333333 1.000000
vt 0.083333 1.000000
vt 0.083333 0.500000
vt 0.000000 1.000000
vt 0.000000 0.500000
vt 0.750000 0.490000
vt 0.870000 0.457846
vt 0.957846 0.370000
vt 0.990000 0.250000
vt 0.957846 0.130000
vt 0.870000 0.042154
vt 0.750000 0.010000
vt 0.630000 0.042154
vt 0.542154 0.130000
vt 0.510000 0.250000
vt 0.542154 0.370000
vt 0.630000 0.457846
vt 0.583333 1.000000
vt 0.666667 1.000000
vt 0.666667 1.000000
vt 0.583333 1.000000
vt 0.500000 1.000000
vt 0.750000 1.000000
vt 0.083333 1.000000
vt 0.000000 1.000000
vt 1.000000 1.000000
vt 0.916667 1.000000
vt 0.833333 1.000000
vt 0.166667 1.000000
vt 0.250000 1.000000
vt 0.370000 0.457846
vt 0.250000 0.490000
vt 0.130000 0.457846
vt 0.042154 0.370000
vt 0.010000 0.250000
vt 0.042154 0.130000
vt 0.130000 0.042154
vt 0.250000 0.010000
vt 0.370000 0.042154
vt 0.457846 0.130000
vt 0.490000 0.250000
vt 0.457846 0.370000
vt 0.083333 1.000000
vt 0.000000 1.000000
vt 0.916667 1.000000
vt 0.833333 1.000000
vt 0.333333 1.000000
vt 0.250000 1.000000
vt 0.500000 1.000000
vt 0.750000 1.000000
vt 0.166667 1.000000
vt 0.416667 1.000000
vt 1.000000 1.000000
vn 0.2588 0.0000 -0.9659
vn 0.7071 0.0000 -0.7071
vn 0.9659 0.0000 -0.2588
vn 0.9659 0.0000 0.2588
vn 0.7071 0.0000 0.7071
vn 0.2588 0.0000 0.9659
vn -0.2588 0.0000 0.9659
vn -0.7071 0.0000 0.7071
vn -0.9659 0.0000 0.2588
vn -0.9659 0.0000 -0.2588
vn -0.2729 -0.9225 0.2729
vn -0.7071 0.0000 -0.7071
vn -0.2588 0.0000 -0.9659
vn 0.0000 -1.0000 -0.0000
vn 0.6376 0.4323 0.6376
vn -0.0999 -0.9225 0.3728
vn 0.0999 -0.9225 0.3728
vn 0.2729 -0.9225 0.2729
vn 0.3728 -0.9225 0.0999
vn -0.0999 -0.9225 -0.3728
vn 0.0999 -0.9225 -0.3728
vn 0.3728 -0.9225 -0.0999
vn -0.2729 -0.9225 -0.2729
vn 0.2729 -0.9225 -0.2729
vn -0.3728 -0.9225 -0.0999
vn -0.3728 -0.9225 0.0999
vn 0.0000 1.0000 0.0000
vn -0.2334 0.4323 -0.8710
vn 0.6376 0.4323 -0.6376
vn -0.8710 0.4323 0.2334
vn 0.2334 0.4323 0.8710
vn 0.8710 0.4323 -0.2334
vn -0.8710 0.4323 -0.2334
vn -0.2334 0.4323 0.8710
vn 0.8710 0.4323 0.2334
vn -0.6376 0.4323 -0.6376
vn 0.2334 0.4323 -0.8710
vn -0.6376 0.4323 0.6376
s off
f 1/1/1 2/2/1 4/3/1 3/4/1
f 3/4/2 4/3/2 6/5/2 5/6/2
f 5/6/3 6/5/3 8/7/3 7/8/3
f 7/8/4 8/7/4 10/9/4 9/10/4
f 9/10/5 10/9/5 12/11/5 11/12/5
f 11/12/6 12/11/6 14/13/6 13/14/6
f 13/14/7 14/13/7 16/15/7 15/16/7
f 15/16/8 16/15/8 18/17/8 17/18/8
f 17/18/9 18/17/9 20/19/9 19/20/9
f 19/20/10 20/19/10 22/21/10 21/22/10
f 18/17/11 16/15/11 32/23/11 33/24/11
f 21/22/12 22/21/12 24/25/12 23/26/12
f 23/26/13 24/25/13 2/27/13 1/28/13
f 1/29/14 3/30/14 5/31/14 7/32/14 9/33/14 11/34/14 13/35/14 15/36/14 17/37/14 19/38/14 21/39/14 23/40/14
f 30/41/15 29/42/15 41/43/15 42/44/15
f 16/15/16 14/13/16 31/45/16 32/23/16
f 14/13/17 12/11/17 30/41/17 31/45/17
f 12/11/18 10/9/18 29/42/18 30/41/18
f 10/9/19 8/7/19 28/46/19 29/42/19
f 2/27/20 24/25/20 36/47/20 25/48/20
f 4/3/21 2/2/21 25/49/21 26/50/21
f 8/7/22 6/5/22 27/51/22 28/46/22
f 24/25/23 22/21/23 35/52/23 36/47/23
f 6/5/24 4/3/24 26/50/24 27/51/24
f 22/21/25 20/19/25 34/53/25 35/52/25
f 20/19/26 18/17/26 33/24/26 34/53/26
f 38/54/27 37/55/27 48/56/27 47/57/27 46/58/27 45/59/27 44/60/27 43/61/27 42/62/27 41/63/27 40/64/27 39/65/27
f 25/48/28 36/47/28 48/66/28 37/67/28
f 27/51/29 26/50/29 38/68/29 39/69/29
f 34/53/30 33/24/30 45/70/30 46/71/30
f 31/45/31 30/41/31 42/44/31 43/72/31
f 28/46/32 27/51/32 39/69/32 40/73/32
f 35/52/33 34/53/33 46/71/33 47/74/33
f 32/23/34 31/45/34 43/72/34 44/75/34
f 29/42/35 28/46/35 40/73/35 41/43/35
f 36/47/36 35/52/36 47/74/36 48/66/36
f 26/50/37 25/49/37 37/76/37 38/68/37
f 33/24/38 32/23/38 44/75/38 45/70/38
